<svg xmlns="http://www.w3.org/2000/svg" xmlns:xlink="http://www.w3.org/1999/xlink" fill="none" version="1.1" width="800" height="800" viewBox="0 0 800 800">
  <defs>
    <linearGradient x1="0.05565369129180908" y1="0" x2="0.4281708413012724" y2="0.8806895949079512" id="master_svg1_7_538">
      <stop offset="1.4285716228187084%" stop-color="#328EFD" stop-opacity="1"/>
      <stop offset="100%" stop-color="#02FAF2" stop-opacity="1"/>
    </linearGradient>
  </defs>
  <g>
    <path d="M403.52112,182.602577L287.25449000000003,412.36224L270,446.45963L307.90981999999997,451.2756L325.5472,453.5162L361.42856,458.07449L353.41945999999996,493.34637L313.44014000000004,669.41461L255,703.16083C201.666687,733.95807,135,695.46149,135,633.86694L135,166.133087C135,104.538507,201.666687,66.041893,255,96.839183L403.52112,182.602577ZM265.4631,482.17261L317.5381,488.78809L281.81669999999997,646.10455L236.99768,671.98523Q226.233688,678.20087,214.379868,677.99347Q203.064209,677.79547,193.00231200000002,671.98523Q182.939186,666.17432,177.108669,656.46991Q171,646.30255,171,633.86694L171,166.133087Q171,153.697472,177.108677,143.530113Q182.939224,133.825676,193.002319,128.014751Q203.064255,122.204494,214.379868,122.006489Q226.233658,121.799065,236.99769,128.014744L356.01855,196.74326000000002L237.87855000000002,430.20502Q237.47951999999998,430.99356,237.11966999999999,431.80072Q236.75981000000002,432.60788,236.43999,433.43173Q236.12018,434.25555,235.84117,435.09412Q235.56216,435.93268,235.32463,436.78391Q235.08711,437.63513,234.89164,438.49701Q234.696167,439.35889,234.543228,440.22928Q234.390274,441.09967,234.28021999999999,441.97656Q234.170166,442.85339,234.103271,443.73462Q234.03637700000002,444.61584,234.012802,445.4993Q233.989227,446.38275,234.009041,447.26627Q234.028839,448.14978,234.09196500000002,449.03128Q234.15509,449.91278,234.26139799999998,450.7901Q234.367706,451.66742,234.51693699999998,452.53851Q234.666168,453.40955,234.85796399999998,454.27228Q235.04975000000002,455.13495,235.28365,455.98718Q235.51753,456.83942,235.79295000000002,457.67914Q236.06837000000002,458.51886,236.38467,459.34409Q236.70096999999998,460.16931,237.05738,460.97803Q237.41379,461.78668,237.80944,462.57693Q238.20510000000002,463.36716,238.63905,464.13702Q239.07301,464.90692,239.54422,465.65454Q240.01542999999998,466.40222,240.52276999999998,467.12585Q241.03009,467.84949,241.57231000000002,468.54733Q242.11452,469.24518,242.69034,469.91559Q243.26614999999998,470.586,243.87418,471.22736Q244.48219,471.86871,245.12094000000002,472.47946Q245.75969,473.09021,246.42764,473.66885Q247.09559000000002,474.24753,247.79113,474.79272Q248.48667,475.33792,249.20812999999998,475.84833Q249.92958,476.35876,250.67522,476.83316Q251.42085,477.30756,252.18885,477.74478Q252.95686,478.18204,253.74539,478.58109Q256.49933,479.97467,259.45029,480.87918Q262.40126,481.78363,265.4631,482.17261ZM356.31314,644.65765L416.50986,609.89709L660,469.29391C713.33331,438.49661,713.33331,361.50339,660,330.7061L472.64273,222.51682L439.92343,203.62306999999998L431.85266,240.53362L414.87369,318.18471L407.14288,353.54053L443.10547,357.6015L471.31845,360.78738L510,365.1554L491.24387,399.2662L389.80579,583.7463399999999L356.31314,644.65765ZM641.99768,438.11835L450.0025,548.98578L541.54565,382.50107Q541.97147,381.72668,542.3587600000001,380.93231Q542.7460599999999,380.13794,543.09393,379.32556Q543.44177,378.51312,543.74933,377.68463Q544.05688,376.85614,544.3234299999999,376.01352Q544.58997,375.17093,544.81488,374.31628Q545.03976,373.46161,545.2224699999999,372.59695Q545.40512,371.73227,545.54517,370.85968Q545.68518,369.98709,545.78223,369.1087Q545.87927,368.23029,545.9331099999999,367.34818Q545.98694,366.46606,545.99744,365.5824Q546.00793,364.69873,545.97504,363.81555Q545.94214,362.93243,545.86594,362.05197Q545.78973,361.17151,545.67044,360.29584Q545.5511799999999,359.4202,545.38907,358.55145Q545.22693,357.68268,545.02237,356.82294Q544.81781,355.9632,544.5713499999999,355.1145Q544.32483,354.26581,544.03702,353.43027Q543.74921,352.5947,543.4207200000001,351.77426Q543.09222,350.9538,542.72388,350.15048Q542.3555,349.34717,541.94818,348.56287Q541.5408600000001,347.77856,541.0955200000001,347.0152Q540.6502399999999,346.25186,540.16803,345.51129Q539.6857600000001,344.77069,539.16776,344.05466Q538.64978,343.33862,538.09726,342.6489Q537.54474,341.95915,536.95908,341.29736Q536.37338,340.63554,535.75595,340.00328Q535.13849,339.371,534.4907499999999,338.76977999999997Q533.84302,338.16856,533.1666,337.59985Q532.49017,337.03114,531.7866200000001,336.49631999999997Q531.0831000000001,335.96149,530.35416,335.46184Q529.6252400000001,334.96216000000004,528.87262,334.49887Q528.12006,334.03555,527.3456699999999,333.60974Q525.80548,332.76286,524.19009,332.07004Q522.57471,331.37721,520.89948,330.84503Q519.2243000000001,330.3129,517.50522,329.94644Q515.78616,329.58002,514.03952,329.38275L450.83627,322.2457L464.57196,259.42735L641.99768,361.88168Q652.76306,368.09814,658.51172,378.47177Q664,388.37555,664,400Q664,411.62448,658.51172,421.52826Q652.76306,431.90189,641.99768,438.11835Z" fill-rule="evenodd" fill="url(#master_svg1_7_538)" fill-opacity="1"/>
  </g>
</svg>
