<svg xmlns="http://www.w3.org/2000/svg" xmlns:xlink="http://www.w3.org/1999/xlink" fill="none" version="1.1" width="700" height="700" viewBox="0 0 700 700"><defs><clipPath id="master_svg0_7_41"><rect x="0" y="0" width="700" height="700" rx="0"/></clipPath><linearGradient x1="0.05565369129180908" y1="0" x2="0.4281708413012724" y2="0.8806895949079512" id="master_svg1_8_53"><stop offset="0%" stop-color="#328EFD" stop-opacity="1"/><stop offset="100%" stop-color="#02FAF2" stop-opacity="1"/></linearGradient></defs><g clip-path="url(#master_svg0_7_41)"><g><path d="M336.52112,132.602577L220.25449,362.36224L203,396.45963L240.90982,401.2756L258.5472,403.5162L294.42856,408.07449L286.41945999999996,443.34637L246.44014,619.41461L188,653.16083C134.666687,683.95807,68,645.46149,68,583.86694L68,116.133087C68,54.538506999999996,134.666687,16.041893,188,46.839183L336.52112,132.602577ZM198.4631,432.17261L250.5381,438.78809L214.8167,596.10455L169.99768,621.98523Q159.233688,628.20087,147.379868,627.99347Q136.064209,627.79547,126.002312,621.98523Q115.939186,616.17432,110.10866899999999,606.46991Q104,596.30255,104,583.86694L104,116.133087Q104,103.697472,110.108677,93.530113Q115.939224,83.825676,126.002319,78.01475099999999Q136.064255,72.204494,147.379868,72.006489Q159.233658,71.799065,169.99769,78.01474400000001L289.01855,146.74326000000002L170.87855000000002,380.20502Q170.47951999999998,380.99356,170.11966999999999,381.80072Q169.75981000000002,382.60788,169.43999,383.43173Q169.12018,384.25555,168.84117,385.09412Q168.56216,385.93268,168.32463,386.78391Q168.08711,387.63513,167.89164,388.49701Q167.696167,389.35889,167.543228,390.22928Q167.390274,391.09967,167.28021999999999,391.97656Q167.170166,392.85339,167.103271,393.73462Q167.03637700000002,394.61584,167.012802,395.4993Q166.989227,396.38275,167.009041,397.26627Q167.028839,398.14978,167.09196500000002,399.03128Q167.15509,399.91278,167.26139799999999,400.7901Q167.367706,401.66742,167.51693699999998,402.53851Q167.666168,403.40955,167.85796399999998,404.27228Q168.04975000000002,405.13495,168.28365,405.98718Q168.51753,406.83942,168.79295000000002,407.67914Q169.06837000000002,408.51886,169.38467,409.34409Q169.70096999999998,410.16931,170.05738,410.97803Q170.41379,411.78668,170.80944,412.57693Q171.20510000000002,413.36716,171.63905,414.13702Q172.07301,414.90692,172.54422,415.65454Q173.01542999999998,416.40222,173.52276999999998,417.12585Q174.03009,417.84949,174.57231000000002,418.54733Q175.11452,419.24518,175.69034,419.91559Q176.26614999999998,420.586,176.87418,421.22736Q177.48219,421.86871,178.12094000000002,422.47946Q178.75969,423.09021,179.42764,423.66885Q180.09559000000002,424.24753,180.79113,424.79272Q181.48667,425.33792,182.20812999999998,425.84833Q182.92958,426.35876,183.67522,426.83316Q184.42085,427.30756,185.18885,427.74478Q185.95686,428.18204,186.74539,428.58109Q189.49933,429.97467,192.45029,430.87918Q195.40125999999998,431.78363,198.4631,432.17261ZM289.31314,594.65765L349.50986,559.89709L593,419.29391C646.33331,388.49661,646.33331,311.50339,593,280.7061L405.64273,172.51682L372.92343,153.62306999999998L364.85266,190.53362L347.87369,268.18471L340.14288,303.54053L376.10547,307.6015L404.31845,310.78738L443,315.1554L424.24387,349.2662L322.80579,533.7463399999999L289.31314,594.65765ZM574.99768,388.11835L383.0025,498.98578L474.54565,332.50107Q474.97147,331.72668,475.35876,330.93231Q475.74606,330.13794,476.09393,329.32556Q476.44177,328.51312,476.74933,327.68463Q477.05688,326.85614,477.32343,326.01352Q477.58997,325.17093,477.81488,324.31628Q478.03976,323.46161,478.22247,322.59695Q478.40512,321.73227,478.54517,320.85968Q478.68518,319.98709,478.78223,319.1087Q478.87927,318.23029,478.93311,317.34818Q478.98694,316.46606,478.99744,315.5824Q479.00793,314.69873,478.97504,313.81555Q478.94214,312.93243,478.86594,312.05197Q478.78973,311.17151,478.67044,310.29584Q478.55118,309.4202,478.38907,308.55145Q478.22693,307.68268,478.02237,306.82294Q477.81781,305.9632,477.57135,305.1145Q477.32483,304.26581,477.03702,303.43027Q476.74921,302.5947,476.42072,301.77426Q476.09222,300.9538,475.72388,300.15048Q475.3555,299.34717,474.94818,298.56287Q474.54086,297.77856,474.09552,297.0152Q473.65024,296.25186,473.16803,295.51129Q472.68576,294.77069,472.16776,294.05466Q471.64978,293.33862,471.09726,292.6489Q470.54474,291.95915,469.95908,291.29736Q469.37338,290.63554,468.75595,290.00328Q468.13849,289.371,467.49075,288.76977999999997Q466.84302,288.16856,466.1666,287.59985Q465.49017,287.03114,464.78662,286.49631999999997Q464.0831,285.96149,463.35416,285.46184Q462.62524,284.96216000000004,461.87262,284.49887Q461.12006,284.03555,460.34567,283.60974Q458.80548,282.76286,457.19009,282.07004Q455.57471,281.37721,453.89948,280.84503Q452.2243,280.3129,450.50522,279.94644Q448.78616,279.58002,447.03952,279.38275L383.83627,272.2457L397.57196,209.42735L574.99768,311.88168Q585.76306,318.09814,591.51172,328.47177Q597,338.37555,597,350Q597,361.62448,591.51172,371.52826Q585.76306,381.90189,574.99768,388.11835Z" fill-rule="evenodd" fill="url(#master_svg1_8_53)" fill-opacity="1"/></g></g></svg>